#!OML:ASF F:\VICON\USERDATA\INSTALL\rory3\rory3.ASF
:FULLY-SPECIFIED
:DEGREES
1123
root -4.28416 17.8489 -10.8364 12.8854 -10.5633 9.85608
lowerback 12.3362 -2.59072 -0.24118
upperback 6.54942 -3.3847 7.84111
thorax 0.513916 -1.88022 8.85829
lowerneck -7.02666 -14.0353 -11.6204
upperneck 27.3953 -20.8845 10.0616
head 12.5906 -9.4563 2.65676
rclavicle -9.22361e-014 1.36764e-013
rhumerus 8.99319 -18.2766 -78.6509
rradius 36.3043
rwrist -6.67981
rhand -34.8655 -20.3189
rfingers 7.12502
rthumb -8.015 -50.1469
lclavicle -9.22361e-014 1.36764e-013
lhumerus 0.0661751 -60.6968 90.2757
lradius 64.2327
lwrist 38.8313
lhand -14.0536 45.7295
lfingers 7.12502
lthumb 12.0775 -1004.64
rfemur -37.9347 -2.37429 4.15946
rtibia 34.0761
rfoot -8.01476 -3.63106
rtoes 0.536795
lfemur -14.034 -3.11879 -22.1061
ltibia 23.1167
lfoot -9.12752 1.09649
ltoes -25.1553
1124
root -4.23851 17.8407 -10.8635 12.6586 -10.256 9.87328
lowerback 12.4569 -2.60442 -0.193692
upperback 6.48447 -3.385 8.06486
thorax 0.394665 -1.88025 9.08967
lowerneck -6.59078 -14.0892 -11.804
upperneck 27.2369 -20.9699 10.1438
head 12.485 -9.52579 2.73051
rclavicle -6.36111e-014 7.63333e-014
rhumerus 8.24257 -16.6377 -78.9802
rradius 36.0427
rwrist -7.07007
rhand -34.0581 -20.6624
rfingers 7.12502
rthumb -7.23564 -50.5187
lclavicle -6.36111e-014 7.63333e-014
lhumerus -1.99646 -59.8766 91.8557
lradius 63.7091
lwrist 40.1836
lhand -17.333 45.9703
lfingers 7.12502
lthumb 8.914 -1004.24
rfemur -37.6738 -2.55756 3.99082
rtibia 34.0624
rfoot -7.99008 -3.59104
rtoes 0.806263
lfemur -13.9753 -3.2355 -22.2279
ltibia 23.2457
lfoot -9.4153 0.989976
ltoes -25.805
1125
root -4.19015 17.8306 -10.8889 12.4397 -9.96902 9.94889
lowerback 12.5167 -2.56377 -0.0781523
upperback 6.47253 -3.31271 8.202
thorax 0.341419 -1.84199 9.17125
lowerneck -6.2533 -14.2207 -11.8504
upperneck 27.0726 -21.1846 10.2471
head 12.4007 -9.63153 2.76144
rclavicle -6.36111e-015 -3.81667e-014
rhumerus 7.61339 -15.2776 -79.4317
rradius 35.6835
rwrist -7.55163
rhand -32.8292 -20.8087
rfingers 7.12502
rthumb -6.04936 -50.7023
lclavicle -6.36111e-015 -3.81667e-014
lhumerus -3.64432 -59.24 92.9184
lradius 63.2695
lwrist 41.9152
lhand -19.0645 46.1815
lfingers 7.12502
lthumb 7.24291 -1003.96
rfemur -37.459 -2.80539 3.76471
rtibia 34.0655
rfoot -7.92505 -3.50617
rtoes 0.799862
lfemur -13.9021 -3.34655 -22.4236
ltibia 23.3474
lfoot -9.73545 0.866178
ltoes -26.5626
1126
root -4.1386 17.8159 -10.9153 12.3079 -10.1404 9.97457
lowerback 12.4999 -2.36525 -0.0307894
upperback 6.50926 -3.0491 8.32724
thorax 0.353155 -1.71254 9.25163
lowerneck -6.06949 -14.3962 -11.9567
upperneck 26.9109 -21.4397 10.3481
head 12.3621 -9.75282 2.77942
rclavicle 7.31528e-014 -1.90833e-014
rhumerus 7.15375 -13.8729 -79.8637
rradius 35.1817
rwrist -8.11535
rhand -31.448 -20.108
rfingers 7.12502
rthumb -4.71576 -50.0355
lclavicle 7.31528e-014 -1.90833e-014
lhumerus -5.0847 -58.464 93.8377
lradius 62.931
lwrist 44.3413
lhand -18.3848 47.1782
lfingers 7.12502
lthumb 7.8989 -1002.99
rfemur -37.5264 -2.83876 3.55463
rtibia 34.0697
rfoot -7.67148 -3.26828
rtoes 0.407288
lfemur -13.8325 -3.26764 -22.6805
ltibia 23.4115
lfoot -10.0826 1.02374
ltoes -27.4157
1127
root -4.08607 17.8001 -10.9435 12.3216 -10.4302 10.0068
lowerback 12.344 -2.1098 -0.069856
upperback 6.52874 -2.72581 8.44977
thorax 0.415494 -1.55617 9.36556
lowerneck -5.8618 -14.5755 -11.9685
upperneck 26.6296 -21.696 10.4484
head 12.2588 -9.87205 2.78699
rclavicle 8.26944e-014 -9.22361e-014
rhumerus 6.7181 -12.5736 -80.3697
rradius 34.6822
rwrist -8.61013
rhand -29.8137 -18.7552
rfingers 7.12502
rthumb -3.1375 -48.7119
lclavicle 8.26944e-014 -9.22361e-014
lhumerus -6.69205 -57.6177 94.9006
lradius 62.6706
lwrist 47.1075
lhand -15.0479 47.9432
lfingers 7.12502
lthumb 11.1185 -1002.37
rfemur -37.8019 -2.79984 3.30113
rtibia 34.0993
rfoot -7.45262 -3.07326
rtoes 0.436544
lfemur -13.8928 -3.23094 -22.9508
ltibia 23.4496
lfoot -10.4734 1.30292
ltoes -27.3472
1128
root -4.03655 17.7861 -10.9728 12.2612 -10.4923 10.0132
lowerback 12.2964 -1.87027 -0.00269815
upperback 6.5473 -2.40537 8.57235
thorax 0.412073 -1.39605 9.42412
lowerneck -5.62728 -14.7937 -11.942
upperneck 26.3881 -22.051 10.6501
head 12.1905 -10.0206 2.80931
rclavicle -2.70347e-014 9.22361e-014
rhumerus 6.24577 -11.3157 -80.8546
rradius 34.1964
rwrist -8.92922
rhand -28.0324 -17.9966
rfingers 7.12502
rthumb -1.41719 -47.9716
lclavicle -2.70347e-014 9.22361e-014
lhumerus -8.11282 -56.9709 95.7709
lradius 62.305
lwrist 49.2872
lhand -17.6201 48.5297
lfingers 7.12502
lthumb 8.63701 -1001.67
rfemur -37.9064 -2.77195 3.06895
rtibia 34.142
rfoot -7.34556 -2.9347
rtoes 1.21216
lfemur -13.9604 -3.3429 -23.1211
ltibia 23.5006
lfoot -10.755 1.49003
ltoes -26.5941
1129
root -3.98541 17.7672 -11.0032 12.1712 -10.5226 10.0082
lowerback 12.2241 -1.66933 0.162659
upperback 6.63676 -2.13317 8.63444
thorax 0.497509 -1.2597 9.35962
lowerneck -5.53337 -15.0119 -11.9184
upperneck 26.2156 -22.4431 10.9828
head 12.2036 -10.1638 2.85872
rclavicle 2.06736e-014 -7.31528e-014
rhumerus 5.8606 -9.71188 -81.3552
rradius 33.7169
rwrist -9.1385
rhand -26.8278 -17.9374
rfingers 7.12502
rthumb -0.25377 -47.917
lclavicle 2.06736e-014 -7.31528e-014
lhumerus -9.13179 -56.2689 96.0717
lradius 61.9203
lwrist 50.7811
lhand -18.683 48.8191
lfingers 7.12502
lthumb 7.61112 -1001.34
rfemur -37.9849 -2.70482 2.83488
rtibia 34.1895
rfoot -7.21214 -2.90983
rtoes 1.61114
lfemur -13.9741 -3.31197 -23.2843
ltibia 23.5318
lfoot -11.0633 1.50464
ltoes -26.1474
